<svg fill="none" height="38" viewBox="0 0 153 38" width="153" xmlns="http://www.w3.org/2000/svg" xmlns:xlink="http://www.w3.org/1999/xlink"><linearGradient id="a" gradientUnits="userSpaceOnUse" x1="76.5039" x2="76.5039" y1="-.000519" y2="38.0006"><stop offset="0" stop-color="#b61e1e"/><stop offset="1" stop-color="#f94646"/></linearGradient><clipPath id="b"><path d="m0 0h153v38h-153z"/></clipPath><mask id="c" height="40" maskUnits="userSpaceOnUse" width="154" x="0" y="-1"><path d="m128.89 38h.797v-3.6646h.013l1.325 3.6646h.69l1.325-3.6646h.014v3.6646h.796v-4.7485h-1.165l-1.285 3.7177h-.014l-1.318-3.7177h-1.178zm-4.411-4.0304h1.512v4.0304h.837v-4.0304h1.52v-.7181h-3.869zm-9.725 4.0304 38.25-38.00001213h-23.021l-38.2491 38.00001213h23.0211zm-5.484-21.451h-46.3042c-14.1117 0-16.5814.7434-22.6262 6.7482-5.6531 5.6161-14.8359 14.7034-14.8359 14.7034h20.0583l4.7852-4.7539c3.1461-3.1255 4.7685-3.4493 11.3746-3.4493h34.2133l13.3339-13.248zm-69.5475 4.0382c-4.1748 3.9133-13.2587 12.6794-18.1547 17.4129h-21.56407686s17.27877686-17.1165 26.88337686-26.5088c9.8948-9.35749 14.827-11.4918188 32.9766-11.4918188h66.0653l-14.304 14.2107188h-50.4187c-12.7526 0-15.6175.878-21.4825 6.3769z" fill="#fff"/></mask><g clip-path="url(#b)"><g mask="url(#c)"><path d="m114.754 38 38.25-38.00001213h-23.021l-38.2491 38.00001213h23.0211zm-5.484-21.451h-46.3042c-14.1117 0-16.5814.7434-22.6262 6.7482-5.6531 5.6161-14.8359 14.7034-14.8359 14.7034h20.0583l4.7852-4.7539c3.1461-3.1255 4.7685-3.4493 11.3746-3.4493h34.2133l13.3339-13.248zm-69.5475 4.0382c-4.1748 3.9133-13.2587 12.6794-18.1547 17.4129h-21.56407686s17.27877686-17.1165 26.88337686-26.5088c9.8948-9.35749 14.827-11.4918188 32.9766-11.4918188h66.0653l-14.304 14.2107188h-50.4187c-12.7526 0-15.6175.878-21.4825 6.3769z" fill="url(#a)"/></g></g></svg>